<svg id="svg" version="1.1" width="320" height="320" viewBox="0 0 320 320" xmlns="http://www.w3.org/2000/svg"><path d="M149.500 22.605 C 115.190 26.033,86.482 39.410,62.936 62.942 C 36.125 89.739,22.606 122.473,22.646 160.500 C 22.684 196.955,35.522 228.823,60.762 255.120 C 78.663 273.770,97.642 285.250,122.556 292.498 C 146.034 299.329,171.910 299.518,196.244 293.038 C 238.900 281.678,275.159 247.863,289.906 205.688 C 295.377 190.043,297.286 178.422,297.327 160.500 C 297.395 131.498,290.336 107.699,274.465 83.426 C 267.248 72.389,248.463 53.352,238.000 46.472 C 221.255 35.461,203.073 28.040,184.403 24.594 C 175.943 23.033,156.376 21.918,149.500 22.605 M183.500 27.622 C 231.330 35.399,273.368 72.228,288.373 119.500 C 294.579 139.050,296.236 164.135,292.624 183.822 C 282.676 238.040,240.993 280.674,186.734 292.129 C 173.206 294.985,148.837 295.192,135.500 292.563 C 80.620 281.748,39.252 240.654,27.911 185.688 C 25.243 172.759,25.035 149.914,27.462 136.500 C 38.281 76.724,88.437 30.931,148.450 26.037 C 159.507 25.136,171.559 25.681,183.500 27.622 M90.476 129.819 C 70.929 144.192,65.479 147.936,65.221 147.163 C 65.059 146.678,66.067 142.348,67.460 137.540 C 68.854 132.732,69.743 128.394,69.438 127.899 C 68.644 126.615,65.611 126.789,64.200 128.200 C 62.476 129.924,62.686 132.334,64.500 131.638 C 65.325 131.322,66.000 131.512,66.000 132.061 C 66.000 132.611,62.782 144.303,58.849 158.045 C 52.384 180.631,51.295 186.226,53.906 183.433 C 54.386 182.920,55.984 178.225,57.457 173.000 C 63.531 151.449,62.948 152.902,65.067 154.036 C 67.206 155.181,69.947 160.110,73.038 168.371 C 75.867 175.934,78.474 179.000,82.073 179.000 C 84.064 179.000,85.000 178.499,85.000 177.433 C 85.000 176.348,84.415 176.051,83.100 176.468 C 80.795 177.200,77.670 173.595,75.922 168.188 C 74.069 162.456,71.027 156.763,68.213 153.760 C 66.801 152.254,65.838 150.864,66.073 150.671 C 66.308 150.479,72.642 145.948,80.149 140.602 C 87.655 135.256,94.547 130.053,95.464 129.040 C 98.533 125.648,95.505 126.121,90.476 129.819 M175.002 129.196 C 171.938 132.440,169.180 138.069,165.512 148.567 C 163.770 153.554,161.988 158.211,161.552 158.917 C 160.269 160.993,148.862 168.000,146.766 168.000 C 145.118 168.000,144.941 167.532,145.536 164.750 C 145.918 162.963,146.668 160.957,147.202 160.294 C 148.359 158.856,147.292 156.702,145.861 157.586 C 145.310 157.927,142.078 158.795,138.680 159.517 C 135.281 160.239,131.713 161.141,130.750 161.522 C 129.351 162.075,129.000 161.685,129.000 159.576 C 129.000 158.124,128.317 156.675,127.482 156.355 C 125.051 155.422,120.092 158.013,117.300 161.674 C 114.327 165.571,113.481 165.495,115.013 161.466 C 115.601 159.920,115.825 157.987,115.512 157.170 C 115.043 155.949,114.593 156.060,112.977 157.794 C 110.706 160.232,105.159 161.986,99.698 161.994 C 96.393 161.999,95.763 161.618,94.877 159.077 C 93.929 156.357,93.652 156.225,90.893 157.187 C 87.460 158.384,84.000 164.294,84.000 168.960 C 84.000 171.506,84.392 172.000,86.411 172.000 C 88.701 172.000,94.000 167.059,94.000 164.923 C 94.000 164.415,96.365 164.000,99.257 164.000 C 102.148 164.000,106.055 163.558,107.940 163.017 C 109.825 162.477,111.498 162.165,111.658 162.325 C 111.818 162.485,110.161 169.471,107.975 177.850 C 103.786 193.903,103.433 196.000,104.922 196.000 C 105.430 196.000,107.271 191.387,109.013 185.750 C 110.756 180.113,113.297 173.250,114.660 170.500 C 117.601 164.566,122.686 159.000,125.165 159.000 C 128.017 159.000,126.296 161.599,120.860 165.505 C 118.141 167.458,116.176 169.477,116.494 169.990 C 117.214 171.156,121.337 169.667,124.689 167.030 C 126.967 165.238,133.358 163.030,140.509 161.564 L 143.519 160.947 143.159 165.466 C 142.657 171.786,144.576 172.272,152.855 167.922 C 156.438 166.040,159.660 164.375,160.015 164.223 C 160.371 164.071,160.462 165.308,160.217 166.973 C 159.950 168.796,160.216 170.000,160.887 170.000 C 161.499 170.000,162.000 169.326,162.000 168.503 C 162.000 166.254,168.959 159.000,171.116 159.000 C 174.956 159.000,172.999 163.216,167.359 167.097 C 163.041 170.068,162.439 172.000,165.831 172.000 C 166.773 172.000,169.109 170.719,171.022 169.153 C 175.103 165.814,177.694 164.372,182.949 162.518 L 186.798 161.160 186.697 164.696 C 186.469 172.746,196.608 173.113,206.696 165.418 C 210.402 162.591,210.619 162.993,208.554 168.848 C 207.608 171.527,207.458 173.165,208.120 173.574 C 208.677 173.919,209.250 174.043,209.393 173.850 C 209.536 173.658,210.695 171.700,211.969 169.500 C 213.242 167.300,215.230 164.055,216.385 162.288 L 218.486 159.077 220.493 161.557 C 222.717 164.305,227.621 165.057,234.306 163.675 L 238.112 162.888 237.446 166.434 C 236.927 169.204,237.139 170.116,238.415 170.606 C 240.237 171.305,247.762 166.784,248.656 164.453 C 249.832 161.390,250.759 163.175,249.732 166.523 C 249.082 168.638,246.946 171.442,244.383 173.542 C 234.571 181.583,226.000 192.128,226.000 196.161 C 226.000 198.454,228.950 199.975,231.500 198.996 C 236.225 197.182,244.694 186.095,248.636 176.565 C 250.651 171.693,255.304 168.303,266.750 163.368 C 272.789 160.764,274.680 159.000,271.434 159.000 C 270.573 159.000,265.880 161.000,261.005 163.444 L 252.141 167.888 253.646 162.820 C 255.914 155.184,254.199 154.941,247.472 161.944 C 244.273 165.275,241.283 168.000,240.828 168.000 C 239.352 168.000,239.949 164.864,242.178 160.897 C 244.718 156.377,243.971 154.742,240.746 157.763 C 237.713 160.604,233.723 162.000,228.635 162.000 C 223.871 162.000,222.000 160.675,222.000 157.300 C 222.000 154.521,219.331 154.203,217.379 156.750 C 216.258 158.213,215.886 158.269,215.115 157.096 C 214.377 155.974,213.421 156.429,210.346 159.365 C 206.350 163.180,195.896 169.000,193.040 169.000 C 190.880 169.000,189.000 167.045,189.000 164.800 C 189.000 163.717,189.735 163.000,190.845 163.000 C 193.988 163.000,197.420 157.995,195.212 156.631 C 194.779 156.363,190.616 157.449,185.962 159.044 C 175.863 162.505,175.000 162.583,175.000 160.035 C 175.000 157.021,171.875 155.833,168.521 157.574 C 166.971 158.378,165.504 158.837,165.261 158.594 C 165.018 158.352,166.634 155.750,168.852 152.812 C 176.330 142.908,181.693 128.488,178.339 127.303 C 177.700 127.077,176.199 127.929,175.002 129.196 M174.170 139.157 C 172.556 142.646,170.505 146.400,169.612 147.500 C 168.063 149.408,168.038 149.362,169.063 146.500 C 171.226 140.465,176.347 130.541,176.720 131.661 C 176.932 132.295,175.784 135.668,174.170 139.157 M146.000 154.000 C 146.000 154.550,146.900 155.000,148.000 155.000 C 149.100 155.000,150.000 154.550,150.000 154.000 C 150.000 153.450,149.100 153.000,148.000 153.000 C 146.900 153.000,146.000 153.450,146.000 154.000 M90.488 165.720 C 87.914 170.440,85.423 171.458,86.427 167.380 C 87.565 162.754,89.979 159.579,91.331 160.931 C 92.190 161.790,91.980 162.983,90.488 165.720 M242.906 182.025 C 241.140 185.339,237.819 190.064,235.527 192.525 C 228.846 199.700,226.603 197.962,232.009 189.799 C 234.820 185.556,244.173 176.000,245.516 176.000 C 245.847 176.000,244.672 178.711,242.906 182.025 " stroke="none" fill="black" fill-rule="evenodd"/></svg>